<?xml version="1.0" standalone="no"?><svg xmlns="http://www.w3.org/2000/svg" viewBox="0 0 1440 320"><path fill="#e00122" fill-opacity="1" d="M0,128L75.8,96L151.6,256L227.4,288L303.2,64L378.9,256L454.7,192L530.5,288L606.3,32L682.1,64L757.9,224L833.7,96L909.5,160L985.3,160L1061.1,288L1136.8,192L1212.6,288L1288.4,160L1364.2,160L1440,64L1440,320L1364.2,320L1288.4,320L1212.6,320L1136.8,320L1061.1,320L985.3,320L909.5,320L833.7,320L757.9,320L682.1,320L606.3,320L530.5,320L454.7,320L378.9,320L303.2,320L227.4,320L151.6,320L75.8,320L0,320Z"></path></svg>